<svg width="50" height="51" fill="none" xmlns="http://www.w3.org/2000/svg"><path d="M44.991 17.843h-3.289V2.438C41.702 1.094 40.63 0 39.312 0H10.688c-1.318 0-2.39 1.094-2.39 2.438v15.405h-3.29c-1.365 0-2.476 1.133-2.476 2.526V42.82c0 1.94 1.548 3.52 3.45 3.52h1.316V51h4.072v-4.66h27.52V51h4.072v-4.66h1.055c1.902 0 3.45-1.58 3.45-3.52V20.37c0-1.393-1.11-2.526-2.476-2.526zM10.688.933h28.624c.814 0 1.476.675 1.476 1.505v11.144H9.211V2.438c0-.83.662-1.506 1.477-1.506zM9.21 14.513h31.577v3.33h-.142c-1.365 0-2.476 1.132-2.476 2.525v5.863H11.83V20.37c0-1.393-1.111-2.526-2.477-2.526h-.142v-3.329zm2.618 12.65H38.17v2.797H11.83v-2.796zM5.982 45.408c-1.398 0-2.536-1.16-2.536-2.587V20.37c0-.879.7-1.594 1.562-1.594h4.345c.862 0 1.562.715 1.562 1.594v25.038H5.982zm4.474 4.66H8.212V46.34h2.244v3.729zm1.373-4.66V30.893H38.17v14.514H11.83zm30.22 4.66h-2.244V46.34h2.244v3.729zm4.504-7.247c0 1.427-1.137 2.587-2.536 2.587h-4.933V20.37c0-.879.7-1.594 1.562-1.594h4.345c.862 0 1.562.715 1.562 1.594v22.45z" fill="#A8A8A8"/></svg>