<svg width="68" height="68" fill="none" xmlns="http://www.w3.org/2000/svg"><path d="M68 33.214h-1.488v-.703c0-1.314-.893-2.42-2.103-2.75v-9.06a3.15 3.15 0 00-3.146-3.146H6.737A3.15 3.15 0 003.592 20.7v9.06a2.854 2.854 0 00-2.104 2.75v.703H0v12.8h2.472v4.431h4.461v-4.43h54.134v4.43h4.46v-4.43H68v-12.8zM6.737 18.6h54.526c1.159 0 2.101.942 2.101 2.1v8.96h-6.461a13.523 13.523 0 004.345-2.923l.37-.37-.37-.37a13.457 13.457 0 00-9.578-3.966c-3.618 0-7.02 1.409-9.577 3.967l-.37.37.37.369a13.524 13.524 0 004.345 2.922H21.562a13.521 13.521 0 004.345-2.922l.37-.37-.37-.369a13.456 13.456 0 00-9.578-3.967 13.457 13.457 0 00-9.577 3.967l-.37.37.37.369a13.526 13.526 0 004.345 2.922h-6.46v-8.958c0-1.159.942-2.102 2.1-2.102zM51.67 29.658a12.41 12.41 0 01-8.454-3.292 12.41 12.41 0 018.454-3.292 12.41 12.41 0 018.454 3.292 12.41 12.41 0 01-8.454 3.292zm-35.34 0a12.41 12.41 0 01-8.454-3.292 12.41 12.41 0 018.454-3.292 12.41 12.41 0 018.454 3.292 12.41 12.41 0 01-8.454 3.292zM2.532 32.51c0-.997.811-1.807 1.807-1.807h59.322c.996 0 1.807.81 1.807 1.807v.703H2.532v-.703zM5.89 49.4H3.517v-3.386h2.372V49.4zm58.594 0h-2.372v-3.386h2.372V49.4zm2.472-4.43H1.045V34.258h65.91V44.97z" fill="#A1A1A1"/></svg>