<svg width="54" height="54" fill="none" xmlns="http://www.w3.org/2000/svg"><path d="M39.172 18.224L41.52 0h-2.41l-2.94 22.809a3.63 3.63 0 01-3.591 3.158H15.746a2.265 2.265 0 00-2.261 2.254l-1 25.779h2.403l.846-20.507a3.486 3.486 0 013.492-3.351h13.503a3.51 3.51 0 013.461 3.01L39.112 54h2.405l-2.392-19.45a65.411 65.411 0 01.047-16.326zm.663 34.946l-2.823-20.134a4.344 4.344 0 00-4.283-3.724H19.226a4.314 4.314 0 00-4.322 4.147l-.813 19.71h-.744l.967-24.923v-.017c0-.789.643-1.431 1.432-1.431H32.58c2.232 0 4.13-1.67 4.415-3.883L39.84.83h.736L38.35 18.117a66.249 66.249 0 00-.048 16.534l2.277 18.519h-.743z" fill="#A8A8A8"/></svg>