<svg width="30" height="30" xmlns="http://www.w3.org/2000/svg"><path d="M15 1.875C7.687 1.875 1.875 7.688 1.875 15c0 7.313 5.813 13.125 13.125 13.125 7.313 0 13.125-5.813 13.125-13.125 0-7.313-5.813-13.125-13.125-13.125zm0 24.375C8.812 26.25 3.75 21.187 3.75 15 3.75 8.812 8.813 3.75 15 3.75c6.188 0 11.25 5.063 11.25 11.25 0 6.188-5.063 11.25-11.25 11.25z"/><path d="M20.063 21.563L15 16.5l-5.063 5.063-1.5-1.5L13.5 15 8.437 9.937l1.5-1.5L15 13.5l5.063-5.063 1.5 1.5L16.5 15l5.063 5.063-1.5 1.5z"/><defs><linearGradient id="paint0_linear" x1="15" y1="1.875" x2="15" y2="28.125" gradientUnits="userSpaceOnUse"><stop stop-color="#494596"/><stop offset="1" stop-color="#312C98"/></linearGradient><linearGradient id="paint1_linear" x1="15" y1="8.438" x2="15" y2="21.563" gradientUnits="userSpaceOnUse"><stop stop-color="#494596"/><stop offset="1" stop-color="#312C98"/></linearGradient></defs></svg>