<svg width="58" height="57" fill="none" xmlns="http://www.w3.org/2000/svg"><path d="M51.004 25.132c0-5.801-2.398-12.16-6.412-17.009C40.255 2.885 34.717 0 28.998 0 23.279 0 17.74 2.885 13.404 8.123c-4.015 4.85-6.412 11.208-6.412 17.009 0 11.348 8.942 20.683 20.265 21.558v5.573c-2.8.41-5.376 1.797-7.245 3.947l-.688.79h19.347l-.687-.79a11.869 11.869 0 00-7.246-3.947V46.69c11.324-.875 20.266-10.21 20.266-21.558zm-43.037 0c0-5.588 2.315-11.72 6.193-16.404 4.149-5.01 9.418-7.77 14.838-7.77s10.69 2.76 14.838 7.77c3.878 4.684 6.193 10.816 6.193 16.404 0 11.396-9.435 20.668-21.031 20.668-11.597 0-21.031-9.272-21.031-20.668zm13.547 30.91a10.93 10.93 0 017.484-2.949 10.93 10.93 0 017.483 2.949H21.514zm8.25-3.881a12.11 12.11 0 00-1.532 0v-5.418a19.495 19.495 0 001.532 0v5.418z" fill="#A8A8A8"/><path d="M45.608 25.132c0-4.299-1.659-7.61-4.931-9.843-2.85-1.944-6.888-2.972-11.678-2.972-4.789 0-8.827 1.028-11.677 2.972-3.272 2.232-4.931 5.544-4.931 9.843 0 9 7.45 16.322 16.608 16.322 9.159 0 16.61-7.322 16.61-16.322zm-32.242 0c0-3.966 1.518-7.013 4.512-9.056 2.686-1.833 6.532-2.801 11.121-2.801 4.59 0 8.436.968 11.122 2.801 2.994 2.043 4.512 5.09 4.512 9.056 0 8.471-7.013 15.364-15.634 15.364-8.62 0-15.633-6.893-15.633-15.364z" fill="#A8A8A8"/><path d="M43.217 26.195l-.734-.63C40.356 27.955 34.937 29.56 29 29.56s-11.357-1.606-13.484-3.996l-.734.63C17.118 28.822 22.7 30.52 29 30.52s11.881-1.697 14.218-4.323z" fill="#A8A8A8"/></svg>