<svg width="42" height="42" fill="none" xmlns="http://www.w3.org/2000/svg"><path d="M21 42C9.42 42 0 32.58 0 21S9.42 0 21 0s21 9.42 21 21-9.42 21-21 21zm0-40.01C10.52 1.99 1.99 10.52 1.99 21c0 10.48 8.53 19.01 19.01 19.01 10.48 0 19.01-8.53 19.01-19.01C40.001 10.512 31.48 1.99 21 1.99zm7.08 10.481a1.557 1.557 0 101.557 1.557 1.562 1.562 0 00-1.557-1.557zm-6.91 1.999A6.536 6.536 0 0014.64 21a6.536 6.536 0 006.53 6.53A6.536 6.536 0 0027.7 21a6.536 6.536 0 00-6.53-6.53zm0 10.705a4.185 4.185 0 01-4.183-4.183 4.185 4.185 0 014.183-4.183 4.185 4.185 0 014.183 4.183 4.185 4.185 0 01-4.183 4.183zm13.17-9.605a7.96 7.96 0 00-7.963-7.963H15.864a7.96 7.96 0 00-7.963 7.963v10.51a7.96 7.96 0 007.963 7.964h10.512a7.96 7.96 0 007.963-7.964V15.57zm-2.488 10.51a5.468 5.468 0 01-5.468 5.47H15.872a5.468 5.468 0 01-5.469-5.47V15.57a5.468 5.468 0 015.469-5.469h10.512a5.468 5.468 0 015.468 5.469v10.51z" fill="#FC936F"/></svg>