<svg width="168" height="55" fill="none" xmlns="http://www.w3.org/2000/svg"><path fill="#C8C9CD" d="M136.457 0h20.862v55h-20.862z"/><path d="M19.97.948v36.983h-2.082L2.526 18.54v19.39H0V14.034h2.082l15.397 19.39v-19.39L19.97.948zm17.427 37.188c-3.095 0-5.507-.888-7.237-2.663-1.73-1.775-2.594-4.358-2.594-7.75V14.035h2.526v13.587c0 2.777.626 4.848 1.877 6.213 1.252 1.366 3.061 2.048 5.428 2.048 2.39 0 4.21-.682 5.462-2.048 1.252-1.365 1.878-3.436 1.878-6.213V14.034h2.458v13.69c0 3.39-.865 5.974-2.595 7.749-1.706 1.775-4.108 2.663-7.203 2.663zm50.217-24.102l-8.057 23.897h-2.662l-6.999-20.38-7.032 20.38h-2.629L52.18 14.034h2.594l6.896 20.551 7.135-20.55h2.355l7.033 20.653 6.998-20.654h2.424zm29.45 0v23.897h-2.424V18.814l-9.388 16.078h-1.195l-9.388-15.976v19.015l-2.423 16.12V14.035h2.082l10.378 17.718 10.276-17.718h2.082zm24.684 21.712v2.185H124.85V14.034h16.386v2.185h-13.86v8.5h12.358v2.151h-12.358v8.876h14.372zm20.993-10.139c1.571.341 2.777 1.024 3.619 2.048.865 1.002 1.297 2.299 1.297 3.892 0 2.048-.762 3.63-2.287 4.745-1.502 1.093-3.732 1.639-6.691 1.639h-10.992V14.034h10.309c2.663 0 4.723.535 6.179 1.605 1.479 1.07 2.219 2.583 2.219 4.54 0 1.32-.33 2.447-.99 3.38-.637.91-1.525 1.593-2.663 2.048zm-12.528-9.49v8.67h7.613c1.934 0 3.425-.363 4.472-1.092 1.046-.75 1.57-1.832 1.57-3.243 0-1.41-.524-2.48-1.57-3.209-1.047-.75-2.538-1.126-4.472-1.126h-7.613zm8.432 19.731c2.139 0 3.755-.364 4.847-1.092 1.093-.728 1.639-1.866 1.639-3.414 0-2.981-2.162-4.472-6.486-4.472h-8.432v8.978h8.432z" fill="#000"/></svg>