<svg width="115" height="38" fill="none" xmlns="http://www.w3.org/2000/svg"><path fill="#C8C9CD" d="M94 0h14v38H94z"/><path d="M13.698 1v25.071H12.27L1.733 12.926v13.145H0v-16.2h1.428L11.99 23.016V9.871L13.699 1zm11.954 25.21c-2.123 0-3.778-.602-4.965-1.805-1.186-1.203-1.78-2.955-1.78-5.253v-9.28h1.734v9.21c0 1.882.429 3.286 1.288 4.212.858.926 2.1 1.389 3.723 1.389 1.639 0 2.888-.463 3.746-1.389.859-.926 1.288-2.33 1.288-4.212v-9.21h1.686v9.28c0 2.298-.593 4.05-1.78 5.253-1.17 1.203-2.817 1.805-4.94 1.805zM60.096 9.871l-5.526 16.2h-1.826l-4.8-13.816-4.824 13.816h-1.803l-5.526-16.2h1.78l4.73 13.932 4.893-13.932h1.616l4.824 14.002 4.8-14.002h1.662zm20.201 0v16.2h-1.663v-12.96l-6.439 10.9h-.82l-6.439-10.83v12.89L63.273 37V9.871h1.429l7.118 12.011 7.049-12.01h1.428zM97.228 24.59v1.481h-11.59v-16.2h11.24v1.481H87.37v5.763h8.477v1.458H87.37v6.017h9.858zm14.4-6.873c1.077.231 1.905.694 2.482 1.388.593.68.89 1.559.89 2.639 0 1.388-.523 2.46-1.569 3.216-1.03.741-2.56 1.111-4.589 1.111h-7.54v-16.2h7.071c1.827 0 3.239.363 4.239 1.088 1.014.725 1.522 1.751 1.522 3.078 0 .895-.227 1.659-.679 2.291-.438.617-1.046 1.08-1.827 1.389zm-8.594-6.434v5.878h5.222c1.327 0 2.35-.247 3.068-.74.718-.51 1.077-1.242 1.077-2.199 0-.956-.359-1.682-1.077-2.175-.718-.51-1.741-.764-3.068-.764h-5.222zm5.784 13.377c1.468 0 2.576-.247 3.325-.741.75-.494 1.124-1.265 1.124-2.314 0-2.021-1.483-3.032-4.449-3.032h-5.784v6.087h5.784z" fill="#000"/></svg>