<svg width="54" height="54" fill="none" xmlns="http://www.w3.org/2000/svg"><path d="M41.551 30.504l-.002-.022a1.591 1.591 0 00-1.727-1.442c-3.41.296-6.863.472-10.297.531l-.41-7.28a22.44 22.44 0 006.786-1.728 5.228 5.228 0 003.111-5.476L37.606 4.522A5.227 5.227 0 0032.441 0H21.563a5.227 5.227 0 00-5.165 4.523l-1.406 10.564a5.228 5.228 0 003.11 5.476 22.433 22.433 0 006.787 1.729l-.41 7.28a148.806 148.806 0 01-10.297-.532 1.592 1.592 0 00-1.727 1.44l-.002.025c-.04.427.088.844.363 1.174.276.33.664.533 1.093.57 3.944.342 7.945.53 11.912.56v3.97h-.669v12.999h-.436v.402l-9.878 1.77V54h24.328v-2.05l-9.878-1.77v-.402h-.437V36.779h-.67v-3.97c3.968-.03 7.97-.218 11.914-.56.43-.037.817-.24 1.093-.57a1.59 1.59 0 00.363-1.175zM15.884 15.205L17.29 4.643A4.324 4.324 0 0121.563.9H32.44a4.324 4.324 0 014.273 3.742l1.406 10.563a4.325 4.325 0 01-2.574 4.53 21.552 21.552 0 01-8.544 1.756c-2.954 0-5.83-.59-8.544-1.755a4.325 4.325 0 01-2.574-4.53zm9.903 7.153a22.836 22.836 0 002.43 0l.407 7.228a146.328 146.328 0 01-3.244 0l.407-7.228zm2.6 28.32V53.1h-2.77v-2.422h2.77zM15.739 53.1v-.398l8.978-1.608V53.1h-8.978zm22.528-.398v.398h-8.978v-2.006l8.978 1.608zm-12.213-2.924V37.68h1.897v12.098h-1.897zm1.228-12.999h-.56v-3.965l.28.002.28-.002v3.965zm13.215-5.677a.698.698 0 01-.479.25c-4.31.374-8.689.564-13.015.564-4.326 0-8.705-.19-13.015-.564a.698.698 0 01-.638-.762l-.448-.043.45.02a.691.691 0 01.753-.63 149.679 149.679 0 0025.796 0 .692.692 0 01.753.631l.002.022a.692.692 0 01-.159.512z" fill="#A8A8A8"/></svg>