<svg width="59" height="58" fill="none" xmlns="http://www.w3.org/2000/svg"><path d="M56.962 18.878a4.094 4.094 0 00-.593-.005l-4.805.003c-1.06 0-1.928.225-2.616.678a12.593 12.593 0 00-.254-1.924c-.208-.92-1.059-1.587-2.022-1.587H12.328c-.963 0-1.814.668-2.022 1.587-.148.655-.22 1.369-.254 1.924-.688-.453-1.555-.678-2.616-.678l-4.805-.003a4.094 4.094 0 00-.593.005C.895 18.97 0 19.928 0 21.055v13.679c0 1.959 1.62 3.552 3.613 3.552h1.041v2.525c0 .465.283.88.72 1.058a1.172 1.172 0 001.27-.248l3.391-3.335h38.93l3.392 3.335a1.172 1.172 0 001.27.248c.436-.178.718-.593.718-1.058v-2.525h1.042c1.992 0 3.613-1.594 3.613-3.552V21.055c0-1.127-.895-2.084-2.038-2.177zm-5.397.888l2.5-.002a3.978 3.978 0 00-1.12 1.419l-1.516 3.244a8.06 8.06 0 00.022 6.88 23.77 23.77 0 00-5.154-2.378 7.144 7.144 0 01.595-4.13l1.517-3.244c.577-1.237 1.55-1.789 3.156-1.789zm-39.237-2.833h34.344c.543 0 1.022.375 1.139.89.22.978.257 2.143.262 2.549a4.38 4.38 0 00-.487.811l-1.517 3.244a8.015 8.015 0 00-.72 4.215 24.01 24.01 0 00-4.129-.768 129.173 129.173 0 00-23.442 0 23.98 23.98 0 00-4.127.768 8.015 8.015 0 00-.72-4.215l-1.517-3.244a4.34 4.34 0 00-.488-.811c.006-.405.042-1.57.263-2.549.117-.516.596-.89 1.14-.89zm-4.892 2.833c1.604 0 2.578.552 3.156 1.789l1.516 3.243c.608 1.3.812 2.723.595 4.13a23.774 23.774 0 00-5.154 2.378 8.06 8.06 0 00.022-6.88l-1.516-3.243a3.976 3.976 0 00-1.12-1.419l2.5.002zM6.003 40.992a.255.255 0 01-.283.055.247.247 0 01-.16-.236v-2.525h3.195l-2.752 2.706zm47.438-.18a.247.247 0 01-.16.235.254.254 0 01-.284-.055l-2.752-2.706h3.196v2.525zm4.654-6.078c0 1.47-1.212 2.662-2.708 2.662H3.613c-1.495 0-2.708-1.192-2.708-2.662V21.055c0-.668.53-1.235 1.208-1.29 1.313-.108 2.568.61 3.12 1.79l1.516 3.243a7.209 7.209 0 01-1.61 8.316l.626.642a12.08 12.08 0 011.57-1.255 22.942 22.942 0 0110.529-3.741 128.152 128.152 0 0123.27 0 22.943 22.943 0 0110.53 3.741c.557.371 1.08.792 1.565 1.25l.006.005.626-.642a7.209 7.209 0 01-1.61-8.316l1.516-3.244c.551-1.178 1.807-1.896 3.12-1.79a1.312 1.312 0 011.208 1.291v13.679z" fill="#fff"/></svg>