<?xml version="1.0" encoding="utf-8"?><svg viewBox="0 0 168 68" xmlns="http://www.w3.org/2000/svg" xmlns:xlink="http://www.w3.org/1999/xlink"><style>:root>svg{display:none}:root>svg:target{display:block}</style><svg width="50" height="51" fill="none" viewBox="0 0 50 51" id="armchair" xmlns="http://www.w3.org/2000/svg"><path d="M44.991 17.843h-3.289V2.438C41.702 1.094 40.63 0 39.312 0H10.688c-1.318 0-2.39 1.094-2.39 2.438v15.405h-3.29c-1.365 0-2.476 1.133-2.476 2.526V42.82c0 1.94 1.548 3.52 3.45 3.52h1.316V51h4.072v-4.66h27.52V51h4.072v-4.66h1.055c1.902 0 3.45-1.58 3.45-3.52V20.37c0-1.393-1.11-2.526-2.476-2.526zM10.688.933h28.624c.814 0 1.476.675 1.476 1.505v11.144H9.211V2.438c0-.83.662-1.506 1.477-1.506zM9.21 14.513h31.577v3.33h-.142c-1.365 0-2.476 1.132-2.476 2.525v5.863H11.83V20.37c0-1.393-1.111-2.526-2.477-2.526h-.142v-3.329zm2.618 12.65H38.17v2.797H11.83v-2.796zM5.982 45.408c-1.398 0-2.536-1.16-2.536-2.587V20.37c0-.879.7-1.594 1.562-1.594h4.345c.862 0 1.562.715 1.562 1.594v25.038H5.982zm4.474 4.66H8.212V46.34h2.244v3.729zm1.373-4.66V30.893H38.17v14.514H11.83zm30.22 4.66h-2.244V46.34h2.244v3.729zm4.504-7.247c0 1.427-1.137 2.587-2.536 2.587h-4.933V20.37c0-.879.7-1.594 1.562-1.594h4.345c.862 0 1.562.715 1.562 1.594V42.82z" fill="#A8A8A8"/></svg><svg width="25" height="8" fill="none" viewBox="0 0 25 8" id="arrow" xmlns="http://www.w3.org/2000/svg"><path d="M24.354 4.354a.5.5 0 000-.708L21.172.464a.5.5 0 10-.707.708L23.293 4l-2.828 2.828a.5.5 0 10.707.708l3.182-3.182zM0 4.5h12v-1H0v1zm12 0h12v-1H12v1z" fill="#000"/></svg><svg width="34" height="33" fill="none" viewBox="0 0 34 33" id="arrow-top" xmlns="http://www.w3.org/2000/svg"><path d="M9.875 21.5L17.85 13l7.975 8 .498.5" stroke="#fff" stroke-width="2"/><path d="M32.8 16.5c0 8.563-6.92 15.5-15.45 15.5-8.528 0-15.448-6.937-15.448-15.5C1.902 7.937 8.822 1 17.351 1S32.8 7.937 32.8 16.5z" stroke="#fff" stroke-width="2"/></svg><svg width="68" height="68" fill="none" viewBox="0 0 68 68" id="bed" xmlns="http://www.w3.org/2000/svg"><path d="M68 33.214h-1.488v-.703c0-1.314-.893-2.42-2.103-2.75v-9.06a3.15 3.15 0 00-3.146-3.146H6.737A3.15 3.15 0 003.592 20.7v9.06a2.854 2.854 0 00-2.104 2.75v.703H0v12.8h2.472v4.431h4.461v-4.43h54.134v4.43h4.46v-4.43H68v-12.8zM6.737 18.6h54.526c1.159 0 2.101.942 2.101 2.1v8.96h-6.461a13.523 13.523 0 004.345-2.923l.37-.37-.37-.37a13.457 13.457 0 00-9.578-3.966c-3.618 0-7.02 1.409-9.577 3.967l-.37.37.37.369a13.524 13.524 0 004.345 2.922H21.562a13.521 13.521 0 004.345-2.922l.37-.37-.37-.369a13.456 13.456 0 00-9.578-3.967c-3.617 0-7.019 1.409-9.577 3.967l-.37.37.37.369a13.526 13.526 0 004.345 2.922h-6.46v-8.958c0-1.159.942-2.102 2.1-2.102zM51.67 29.658a12.41 12.41 0 01-8.454-3.292 12.41 12.41 0 018.454-3.292 12.41 12.41 0 018.454 3.292 12.41 12.41 0 01-8.454 3.292zm-35.34 0a12.41 12.41 0 01-8.454-3.292 12.41 12.41 0 018.454-3.292 12.41 12.41 0 018.454 3.292 12.41 12.41 0 01-8.454 3.292zM2.532 32.51c0-.997.811-1.807 1.807-1.807h59.322c.996 0 1.807.81 1.807 1.807v.703H2.532v-.703zM5.89 49.4H3.517v-3.386h2.372V49.4zm58.594 0h-2.372v-3.386h2.372V49.4zm2.472-4.43H1.045V34.258h65.91V44.97z" fill="#A1A1A1"/></svg><svg width="32" height="32" viewBox="0 0 32 32" id="burger-big" xmlns="http://www.w3.org/2000/svg"><path d="M0 5.333C0 4.597.597 4 1.333 4h29.334a1.333 1.333 0 010 2.667H1.333A1.333 1.333 0 010 5.333zM0 16c0-.736.597-1.333 1.333-1.333h29.334a1.333 1.333 0 010 2.666H1.333A1.333 1.333 0 010 16zM0 26.667c0-.737.597-1.334 1.333-1.334h29.334a1.333 1.333 0 010 2.667H1.333A1.333 1.333 0 010 26.667z"/></svg><svg width="24" height="16" viewBox="0 0 24 16" id="burger-small" xmlns="http://www.w3.org/2000/svg"><path d="M0 .889C0 .398.448 0 1 0h22c.552 0 1 .398 1 .889 0 .49-.448.889-1 .889H1c-.552 0-1-.398-1-.89zM0 8c0-.49.448-.889 1-.889h22c.552 0 1 .398 1 .889 0 .49-.448.889-1 .889H1c-.552 0-1-.398-1-.889zM0 15.111c0-.49.448-.889 1-.889h22c.552 0 1 .398 1 .89 0 .49-.448.888-1 .888H1c-.552 0-1-.398-1-.889z"/></svg><svg width="54" height="54" fill="none" viewBox="0 0 54 54" id="chair" xmlns="http://www.w3.org/2000/svg"><path d="M39.172 18.224L41.52 0h-2.41L36.17 22.809a3.63 3.63 0 01-3.591 3.158H15.746a2.265 2.265 0 00-2.261 2.254l-1 25.779h2.403l.846-20.507a3.486 3.486 0 013.492-3.351h13.503a3.51 3.51 0 013.461 3.01L39.112 54h2.405l-2.392-19.45a65.411 65.411 0 01.047-16.326zm.663 34.946l-2.823-20.134a4.344 4.344 0 00-4.283-3.724H19.226a4.314 4.314 0 00-4.322 4.147l-.813 19.71h-.744l.967-24.923v-.017c0-.789.643-1.431 1.432-1.431H32.58c2.232 0 4.13-1.67 4.415-3.883L39.84.83h.736L38.35 18.117a66.249 66.249 0 00-.048 16.534l2.277 18.519h-.743z" fill="#A8A8A8"/></svg><svg width="10" height="8" fill="none" viewBox="0 0 10 8" id="check" xmlns="http://www.w3.org/2000/svg"><path d="M1.376 3.242a.5.5 0 10-.752.659l.752-.659zM4 7l-.376.33.385.44.375-.45L4 7zm5.384-5.68a.5.5 0 00-.768-.64l.768.64zM.624 3.9l3 3.43.752-.66-3-3.428-.752.659zm3.76 3.42l5-6-.768-.64-5 6 .768.64z" fill="#fff"/></svg><svg width="30" height="30" viewBox="0 0 30 30" id="close" xmlns="http://www.w3.org/2000/svg"><path d="M15 1.875C7.687 1.875 1.875 7.688 1.875 15c0 7.313 5.813 13.125 13.125 13.125 7.313 0 13.125-5.813 13.125-13.125 0-7.313-5.813-13.125-13.125-13.125zm0 24.375C8.812 26.25 3.75 21.187 3.75 15 3.75 8.812 8.813 3.75 15 3.75c6.188 0 11.25 5.063 11.25 11.25 0 6.188-5.063 11.25-11.25 11.25z"/><path d="M20.063 21.563L15 16.5l-5.063 5.063-1.5-1.5L13.5 15 8.437 9.937l1.5-1.5L15 13.5l5.063-5.063 1.5 1.5L16.5 15l5.063 5.063-1.5 1.5z"/><defs><linearGradient id="paint0_linear" x1="15" y1="1.875" x2="15" y2="28.125" gradientUnits="userSpaceOnUse"><stop stop-color="#494596"/><stop offset="1" stop-color="#312C98"/></linearGradient><linearGradient id="paint1_linear" x1="15" y1="8.438" x2="15" y2="21.563" gradientUnits="userSpaceOnUse"><stop stop-color="#494596"/><stop offset="1" stop-color="#312C98"/></linearGradient></defs></svg><svg width="58" height="57" fill="none" viewBox="0 0 58 57" id="home-chair" xmlns="http://www.w3.org/2000/svg"><path d="M51.004 25.132c0-5.801-2.398-12.16-6.412-17.009C40.255 2.885 34.717 0 28.998 0 23.279 0 17.74 2.885 13.404 8.123c-4.015 4.85-6.412 11.208-6.412 17.009 0 11.348 8.942 20.683 20.265 21.558v5.573c-2.8.41-5.376 1.797-7.245 3.947l-.688.79h19.347l-.687-.79a11.869 11.869 0 00-7.246-3.947V46.69c11.324-.875 20.266-10.21 20.266-21.558zm-43.037 0c0-5.588 2.315-11.72 6.193-16.404 4.149-5.01 9.418-7.77 14.838-7.77s10.69 2.76 14.838 7.77c3.878 4.684 6.193 10.816 6.193 16.404 0 11.396-9.435 20.668-21.031 20.668-11.597 0-21.031-9.272-21.031-20.668zm13.547 30.91a10.93 10.93 0 017.484-2.949 10.93 10.93 0 017.483 2.949H21.514zm8.25-3.881a12.11 12.11 0 00-1.532 0v-5.418c.254.01.51.015.766.015s.511-.006.766-.015v5.418z" fill="#A8A8A8"/><path d="M45.608 25.132c0-4.299-1.659-7.61-4.931-9.843-2.85-1.944-6.888-2.972-11.678-2.972-4.789 0-8.827 1.028-11.677 2.972-3.272 2.232-4.931 5.544-4.931 9.843 0 9 7.45 16.322 16.608 16.322 9.159 0 16.61-7.322 16.61-16.322zm-32.242 0c0-3.966 1.518-7.013 4.512-9.056 2.686-1.833 6.532-2.801 11.121-2.801 4.59 0 8.436.968 11.122 2.801 2.994 2.043 4.512 5.09 4.512 9.056 0 8.471-7.013 15.364-15.634 15.364-8.62 0-15.633-6.893-15.633-15.364z" fill="#A8A8A8"/><path d="M43.217 26.195l-.734-.63C40.356 27.955 34.937 29.56 29 29.56s-11.357-1.606-13.484-3.996l-.734.63C17.118 28.822 22.7 30.52 29 30.52s11.881-1.697 14.218-4.323z" fill="#A8A8A8"/></svg><svg width="42" height="42" fill="none" viewBox="0 0 42 42" id="instagram" xmlns="http://www.w3.org/2000/svg"><path d="M21 42C9.42 42 0 32.58 0 21S9.42 0 21 0s21 9.42 21 21-9.42 21-21 21zm0-40.01C10.52 1.99 1.99 10.52 1.99 21c0 10.48 8.53 19.01 19.01 19.01 10.48 0 19.01-8.53 19.01-19.01C40.001 10.512 31.48 1.99 21 1.99zm7.08 10.481a1.557 1.557 0 101.557 1.557 1.562 1.562 0 00-1.557-1.557zm-6.91 1.999A6.536 6.536 0 0014.64 21a6.536 6.536 0 006.53 6.53A6.536 6.536 0 0027.7 21a6.536 6.536 0 00-6.53-6.53zm0 10.705a4.185 4.185 0 01-4.183-4.183 4.185 4.185 0 014.183-4.183 4.185 4.185 0 014.183 4.183 4.185 4.185 0 01-4.183 4.183zM34.34 15.57a7.96 7.96 0 00-7.963-7.963H15.864a7.96 7.96 0 00-7.963 7.963V26.08a7.96 7.96 0 007.963 7.964h10.512a7.96 7.96 0 007.963-7.964V15.57zM31.852 26.08a5.468 5.468 0 01-5.468 5.47H15.872a5.468 5.468 0 01-5.469-5.47V15.57a5.468 5.468 0 015.469-5.469h10.512a5.468 5.468 0 015.468 5.469V26.08z" fill="#FC936F"/></svg><svg width="100" height="5" fill="none" viewBox="0 0 100 5" id="line" xmlns="http://www.w3.org/2000/svg"><path stroke="#C8C9CD" stroke-linecap="round" d="M.5.5h99M.5 4.5h99"/></svg><svg width="168" height="55" fill="none" viewBox="0 0 168 55" id="logo" xmlns="http://www.w3.org/2000/svg"><path fill="#C8C9CD" d="M136.457 0h20.862v55h-20.862z"/><path d="M19.97.948V37.931h-2.082L2.526 18.54v19.39H0V14.034h2.082l15.397 19.39v-19.39L19.97.948zM37.397 38.136c-3.095 0-5.507-.888-7.237-2.663-1.73-1.775-2.594-4.358-2.594-7.75V14.035h2.526v13.587c0 2.777.626 4.848 1.877 6.213 1.252 1.366 3.061 2.048 5.428 2.048 2.39 0 4.21-.682 5.462-2.048 1.252-1.365 1.878-3.436 1.878-6.213V14.034h2.458v13.69c0 3.39-.865 5.974-2.595 7.749-1.706 1.775-4.108 2.663-7.203 2.663zM87.614 14.034l-8.057 23.897h-2.662l-6.999-20.38-7.032 20.38h-2.629L52.18 14.034h2.594l6.896 20.551 7.135-20.55h2.355l7.033 20.653 6.998-20.654h2.424zM117.064 14.034v23.897h-2.424V18.814l-9.388 16.078h-1.195l-9.388-15.976v19.015l-2.423 16.12V14.035h2.082l10.378 17.718 10.276-17.718h2.082zM141.748 35.746v2.185H124.85V14.034h16.386v2.185h-13.86v8.5h12.358v2.151h-12.358v8.876h14.372zM162.741 25.607c1.571.341 2.777 1.024 3.619 2.048.865 1.002 1.297 2.299 1.297 3.892 0 2.048-.762 3.63-2.287 4.745-1.502 1.093-3.732 1.639-6.691 1.639h-10.992V14.034h10.309c2.663 0 4.723.535 6.179 1.605 1.479 1.07 2.219 2.583 2.219 4.54 0 1.32-.33 2.447-.99 3.38-.637.91-1.525 1.593-2.663 2.048zm-12.528-9.49v8.67h7.613c1.934 0 3.425-.363 4.472-1.092 1.046-.75 1.57-1.832 1.57-3.243 0-1.41-.524-2.48-1.57-3.209-1.047-.75-2.538-1.126-4.472-1.126h-7.613zm8.432 19.731c2.139 0 3.755-.364 4.847-1.092 1.093-.728 1.639-1.866 1.639-3.414 0-2.981-2.162-4.472-6.486-4.472h-8.432v8.978h8.432z" fill="#000"/></svg><svg width="115" height="38" fill="none" viewBox="0 0 115 38" id="logo-small" xmlns="http://www.w3.org/2000/svg"><path fill="#C8C9CD" d="M94 0h14v38H94z"/><path d="M13.698 1V26.071H12.27L1.733 12.926v13.145H0v-16.2h1.428L11.99 23.016V9.871L13.699 1zM25.652 26.21c-2.123 0-3.778-.602-4.965-1.805-1.186-1.203-1.78-2.955-1.78-5.253v-9.28h1.734v9.21c0 1.882.429 3.286 1.288 4.212.858.926 2.1 1.389 3.723 1.389 1.639 0 2.888-.463 3.746-1.389.859-.926 1.288-2.33 1.288-4.212v-9.21h1.686v9.28c0 2.298-.593 4.05-1.78 5.253-1.17 1.203-2.817 1.805-4.94 1.805zM60.096 9.871l-5.526 16.2h-1.826l-4.8-13.816-4.824 13.816h-1.803l-5.526-16.2h1.78l4.73 13.932 4.893-13.932h1.616l4.824 14.002 4.8-14.002h1.662zM80.297 9.871v16.2h-1.663v-12.96l-6.439 10.9h-.82l-6.439-10.83v12.89L63.273 37V9.871h1.429l7.118 12.011 7.049-12.01h1.428zM97.228 24.59v1.481h-11.59v-16.2h11.24v1.481H87.37v5.763h8.477v1.458H87.37v6.017h9.858zM111.628 17.717c1.077.231 1.905.694 2.482 1.388.593.68.89 1.559.89 2.639 0 1.388-.523 2.46-1.569 3.216-1.03.741-2.56 1.111-4.589 1.111h-7.54v-16.2h7.071c1.827 0 3.239.363 4.239 1.088 1.014.725 1.522 1.751 1.522 3.078 0 .895-.227 1.659-.679 2.291-.438.617-1.046 1.08-1.827 1.389zm-8.594-6.434v5.878h5.222c1.327 0 2.35-.247 3.068-.74.718-.51 1.077-1.242 1.077-2.199 0-.956-.359-1.682-1.077-2.175-.718-.51-1.741-.764-3.068-.764h-5.222zm5.784 13.377c1.468 0 2.576-.247 3.325-.741.75-.494 1.124-1.265 1.124-2.314 0-2.021-1.483-3.032-4.449-3.032h-5.784v6.087h5.784z" fill="#000"/></svg><svg width="24" height="2" fill="none" viewBox="0 0 24 2" id="minus" xmlns="http://www.w3.org/2000/svg"><path d="M1 1h22"/></svg><svg width="54" height="54" fill="none" viewBox="0 0 54 54" id="office-chair" xmlns="http://www.w3.org/2000/svg"><path d="M41.551 30.504l-.002-.022a1.591 1.591 0 00-1.727-1.442c-3.41.296-6.863.472-10.297.531l-.41-7.28a22.44 22.44 0 006.786-1.728 5.228 5.228 0 003.111-5.476L37.606 4.522A5.227 5.227 0 0032.441 0H21.563a5.227 5.227 0 00-5.165 4.523l-1.406 10.564a5.228 5.228 0 003.11 5.476 22.433 22.433 0 006.787 1.729l-.41 7.28a148.806 148.806 0 01-10.297-.532 1.592 1.592 0 00-1.727 1.44l-.002.025c-.04.427.088.844.363 1.174.276.33.664.533 1.093.57 3.944.342 7.945.53 11.912.56v3.97h-.669v12.999h-.436v.402l-9.878 1.77V54h24.328v-2.05l-9.878-1.77v-.402h-.437V36.779h-.67v-3.97c3.968-.03 7.97-.218 11.914-.56.43-.037.817-.24 1.093-.57.274-.33.404-.747.363-1.175zM15.884 15.205L17.29 4.643A4.324 4.324 0 0121.563.9H32.44a4.324 4.324 0 014.273 3.742l1.406 10.563a4.325 4.325 0 01-2.574 4.53 21.552 21.552 0 01-8.544 1.756c-2.954 0-5.83-.59-8.544-1.755a4.325 4.325 0 01-2.574-4.53zm9.903 7.153a22.836 22.836 0 002.43 0l.407 7.228a146.328 146.328 0 01-3.244 0l.407-7.228zm2.6 28.32V53.1h-2.77v-2.422h2.77zM15.739 53.1v-.398l8.978-1.608V53.1h-8.978zm22.528-.398v.398h-8.978v-2.006l8.978 1.608zm-12.213-2.924V37.68h1.897v12.098h-1.897zm1.228-12.999h-.56v-3.965l.28.002.28-.002v3.965zm13.215-5.677a.698.698 0 01-.479.25c-4.31.374-8.689.564-13.015.564-4.326 0-8.705-.19-13.015-.564a.698.698 0 01-.638-.762l-.448-.043.45.02a.691.691 0 01.753-.63c4.271.37 8.61.558 12.898.558 4.287 0 8.627-.187 12.898-.558a.692.692 0 01.753.631l.002.022a.692.692 0 01-.159.512z" fill="#A8A8A8"/></svg><svg width="24" height="24" fill="none" viewBox="0 0 24 24" id="plus" xmlns="http://www.w3.org/2000/svg"><path d="M1 11h22M12 1v22"/></svg><svg width="14" height="27" fill="none" viewBox="0 0 14 27" id="slider-arrow" xmlns="http://www.w3.org/2000/svg"><path d="M1 1l11 12.5L1 26"/></svg><svg width="10" height="7" fill="none" viewBox="0 0 10 7" id="small-arrow" xmlns="http://www.w3.org/2000/svg"><path d="M1 1l4 5 4-5" stroke="#000" stroke-linecap="round"/></svg><svg width="59" height="58" fill="none" viewBox="0 0 59 58" id="sofa" xmlns="http://www.w3.org/2000/svg"><path d="M56.962 18.878a4.094 4.094 0 00-.593-.005l-4.805.003c-1.06 0-1.928.225-2.616.678a12.593 12.593 0 00-.254-1.924c-.208-.92-1.059-1.587-2.022-1.587H12.328c-.963 0-1.814.668-2.022 1.587-.148.655-.22 1.369-.254 1.924-.688-.453-1.555-.678-2.616-.678l-4.805-.003a4.094 4.094 0 00-.593.005C.895 18.97 0 19.928 0 21.055v13.679c0 1.959 1.62 3.552 3.613 3.552h1.041v2.525c0 .465.283.88.72 1.058a1.172 1.172 0 001.27-.248l3.391-3.335h38.93l3.392 3.335a1.172 1.172 0 001.27.248c.436-.178.718-.593.718-1.058v-2.525h1.042c1.992 0 3.613-1.594 3.613-3.552V21.055c0-1.127-.895-2.084-2.038-2.177zm-5.397.888l2.5-.002a3.978 3.978 0 00-1.12 1.419l-1.516 3.244a8.06 8.06 0 00.022 6.88 23.77 23.77 0 00-5.154-2.378 7.144 7.144 0 01.595-4.13l1.517-3.244c.577-1.237 1.55-1.789 3.156-1.789zm-39.237-2.833h34.344c.543 0 1.022.375 1.139.89.22.978.257 2.143.262 2.549-.184.24-.346.51-.487.811l-1.517 3.244a8.015 8.015 0 00-.72 4.215 24.01 24.01 0 00-4.129-.768c-7.777-.711-15.663-.71-23.442 0a23.98 23.98 0 00-4.127.768 8.015 8.015 0 00-.72-4.215l-1.517-3.244c-.14-.3-.303-.57-.488-.811.006-.405.042-1.57.263-2.549.117-.516.596-.89 1.14-.89zm-4.892 2.833c1.604 0 2.578.552 3.156 1.789l1.516 3.243c.608 1.3.812 2.723.595 4.13a23.774 23.774 0 00-5.154 2.378 8.06 8.06 0 00.022-6.88l-1.516-3.243a3.976 3.976 0 00-1.12-1.419l2.5.002zM6.003 40.992a.255.255 0 01-.283.055.247.247 0 01-.16-.236v-2.525h3.195l-2.752 2.706zm47.438-.18a.247.247 0 01-.16.235.254.254 0 01-.284-.055l-2.752-2.706h3.196v2.525zm4.654-6.078c0 1.47-1.212 2.662-2.708 2.662H3.613c-1.495 0-2.708-1.192-2.708-2.662V21.055c0-.668.53-1.235 1.208-1.29 1.313-.108 2.568.61 3.12 1.79l1.516 3.243a7.209 7.209 0 01-1.61 8.316l.626.642c.488-.46 1.012-.882 1.57-1.255a22.942 22.942 0 0110.529-3.741 128.152 128.152 0 0123.27 0 22.943 22.943 0 0110.53 3.741c.557.371 1.08.792 1.565 1.25l.006.005.626-.642a7.209 7.209 0 01-1.61-8.316l1.516-3.244c.551-1.178 1.807-1.896 3.12-1.79a1.312 1.312 0 011.208 1.291v13.679z" fill="#fff"/></svg><svg width="42" height="42" fill="none" viewBox="0 0 42 42" id="youtube" xmlns="http://www.w3.org/2000/svg"><path d="M21 42C9.419 42 0 32.581 0 21S9.419 0 21 0s21 9.419 21 21-9.426 21-21 21zm0-39.745C10.665 2.255 2.255 10.665 2.255 21S10.665 39.745 21 39.745 39.745 31.335 39.745 21 31.335 2.255 21 2.255z" fill="#7A7E8F"/><path d="M25.113 22.407h0l.01-.005a1.41 1.41 0 00.713-1.093 1.317 1.317 0 00-.662-1.278l-5.615-3.223h0l-.008-.004a1.293 1.293 0 00-1.397.059c-.4.284-.563.731-.563 1.128v6.28c0 .385.153.83.545 1.118.429.317.963.313 1.386.088h0l.012-.007 5.58-3.063zm2.951-8.88a4.396 4.396 0 014.395 4.395v6.556a4.396 4.396 0 01-4.395 4.394h-13.99a4.396 4.396 0 01-4.394-4.394v-6.556a4.396 4.396 0 014.395-4.394h13.99z" stroke="#7A7E8F" stroke-width="2"/></svg></svg>