<svg width="42" height="42" fill="none" xmlns="http://www.w3.org/2000/svg"><path d="M21 42C9.419 42 0 32.581 0 21S9.419 0 21 0s21 9.419 21 21-9.426 21-21 21zm0-39.745C10.665 2.255 2.255 10.665 2.255 21S10.665 39.745 21 39.745 39.745 31.335 39.745 21 31.335 2.255 21 2.255z" fill="#7A7E8F"/><path d="M25.113 22.407h0l.01-.005a1.41 1.41 0 00.713-1.093 1.317 1.317 0 00-.662-1.278l-5.615-3.223h0l-.008-.004a1.293 1.293 0 00-1.397.059c-.4.284-.563.731-.563 1.128v6.28c0 .385.153.83.545 1.118a1.29 1.29 0 001.386.088h0l.012-.007 5.58-3.063zm2.951-8.88a4.396 4.396 0 014.395 4.395v6.556a4.396 4.396 0 01-4.395 4.394h-13.99a4.396 4.396 0 01-4.394-4.394v-6.556a4.396 4.396 0 014.395-4.394h13.99z" stroke="#7A7E8F" stroke-width="2"/></svg>